<?xml version="1.0" encoding="UTF-8"?>
<svg id="Calque_2" data-name="Calque 2" xmlns="http://www.w3.org/2000/svg" viewBox="0 0 580.54 470.19">
  <defs>
    <style>
      .cls-1 {
        fill: #fff;
        stroke-width: 0px;
      }
    </style>
  </defs>
  <g id="Calque_1-2" data-name="Calque 1">
    <g>
      <path class="cls-1" d="M322.77,117.4c4.8,0,8.41-.26,10.91-.76v-17.2c-.85-.25-2.08-.51-3.74-.76-1.66-.25-3.44-.38-5.39-.38-1.7,0-3.44.13-5.18.38-1.74.25-3.35.72-4.76,1.4-1.4.68-2.55,1.66-3.4,2.89-.85,1.23-1.27,2.8-1.27,4.67,0,3.69,1.15,6.24,3.48,7.64,2.29,1.4,5.43,2.12,9.38,2.12h-.04ZM321.5,59.53c5.14,0,9.47.64,12.95,1.91,3.48,1.27,6.33,3.1,8.41,5.39,2.08,2.29,3.61,5.1,4.5,8.41.89,3.31,1.36,6.92,1.36,10.83v40.68c-2.38.51-6.03,1.15-10.83,1.87-4.84.72-10.27,1.1-16.35,1.1-4.03,0-7.68-.38-11.04-1.15-3.35-.76-6.2-2-8.53-3.74-2.33-1.7-4.2-3.95-5.52-6.67-1.32-2.72-2-6.11-2-10.15s.76-7.09,2.25-9.77c1.49-2.63,3.52-4.8,6.11-6.5,2.55-1.66,5.52-2.84,8.92-3.61,3.36-.72,6.92-1.1,10.57-1.1,1.7,0,3.52.13,5.39.34,1.87.21,3.91.59,6.03,1.1v-2.55c0-1.78-.21-3.52-.64-5.14-.43-1.61-1.19-3.06-2.25-4.29-1.06-1.23-2.46-2.21-4.25-2.89-1.74-.68-3.95-1.02-6.62-1.02-3.61,0-6.88.25-9.89.76-3.01.51-5.43,1.1-7.3,1.78l-1.91-12.57c1.95-.68,4.84-1.36,8.58-2.04,3.74-.68,7.77-1.02,12.06-1.02h0Z"/>
      <path class="cls-1" d="M405.9,75.19c-1.27-.42-3.06-.89-5.31-1.36-2.25-.47-4.88-.72-7.9-.72-1.7,0-3.52.17-5.44.51-1.91.34-3.27.64-4.03.89v53.75h-15.54v-63.9c3.01-1.1,6.75-2.17,11.21-3.14,4.5-.98,9.47-1.49,14.95-1.49,1.02,0,2.21.08,3.61.21,1.36.13,2.72.3,4.12.51,1.4.21,2.67.47,3.99.76,1.27.3,2.29.59,3.1.85l-2.67,13.08-.08.04h0Z"/>
      <path class="cls-1" d="M419.41,63.35c3.02-.85,6.88-1.66,11.68-2.42,4.8-.76,10.11-1.15,15.92-1.15,5.48,0,10.06.76,13.71,2.25,3.69,1.49,6.62,3.61,8.79,6.28,2.16,2.67,3.74,5.94,4.63,9.77.89,3.82,1.36,7.98,1.36,12.53v61.44h-15.54v-59.02c0-3.61-.25-6.67-.72-9.17s-1.23-4.59-2.29-6.16c-1.06-1.57-2.51-2.72-4.37-3.48-1.83-.72-4.08-1.1-6.75-1.1-1.95,0-4.03.13-6.16.38-2.12.25-3.74.47-4.76.64v54.14h-15.54V63.35h.04Z"/>
      <path class="cls-1" d="M511.24,117.14c4.12,0,7.09-.51,9-1.49,1.87-.98,2.84-2.67,2.84-5.05,0-2.21-1.02-4.08-3.01-5.52-2-1.44-5.31-3.01-9.94-4.76-2.84-1.02-5.39-2.12-7.77-3.27-2.34-1.15-4.37-2.51-6.11-4.03-1.7-1.53-3.06-3.4-4.03-5.56-.98-2.17-1.49-4.84-1.49-8.02,0-6.16,2.25-11,6.79-14.56s10.7-5.31,18.47-5.31c3.95,0,7.68.38,11.29,1.1,3.61.72,6.28,1.44,8.07,2.12l-2.85,12.57c-1.7-.76-3.91-1.49-6.54-2.12-2.63-.64-5.73-.98-9.26-.98-3.18,0-5.73.55-7.69,1.61-1.95,1.06-2.93,2.72-2.93,4.93,0,1.1.17,2.08.59,2.93.38.85,1.06,1.66,2,2.38.93.72,2.16,1.44,3.74,2.17,1.53.72,3.44,1.49,5.65,2.25,3.69,1.36,6.79,2.72,9.38,4.03,2.55,1.32,4.67,2.84,6.37,4.5,1.66,1.66,2.89,3.57,3.65,5.69.76,2.12,1.15,4.71,1.15,7.68,0,6.41-2.38,11.25-7.13,14.56-4.76,3.31-11.51,4.92-20.34,4.92-5.9,0-10.66-.51-14.22-1.49-3.61-.98-6.11-1.78-7.56-2.38l2.68-12.95c2.29.93,5.05,1.83,8.28,2.67,3.18.85,6.88,1.27,10.95,1.27l-.04.08h0Z"/>
      <path class="cls-1" d="M333.81,212.76h8.49v28.36c-.68.21-1.7.51-3.01.81-1.32.3-2.84.6-4.54.89-1.74.3-3.61.55-5.65.76-2.04.21-4.12.3-6.2.3-4.25,0-8.15-.72-11.63-2.08-3.48-1.4-6.5-3.44-9-6.11-2.51-2.68-4.46-5.99-5.82-9.89-1.36-3.91-2.04-8.41-2.04-13.46s.76-9.6,2.34-13.5c1.53-3.95,3.61-7.26,6.24-9.94,2.63-2.67,5.69-4.71,9.21-6.11,3.52-1.4,7.3-2.08,11.34-2.08,2.76,0,5.18.17,7.3.51,2.12.34,3.95.76,5.48,1.23,1.53.47,2.76.93,3.74,1.4.98.47,1.61.81,1.95,1.06l-2.72,7.09c-1.7-1.1-3.95-2.04-6.75-2.76-2.8-.72-5.65-1.1-8.58-1.1-3.1,0-5.9.55-8.45,1.66-2.55,1.1-4.71,2.72-6.45,4.8-1.78,2.08-3.18,4.67-4.16,7.64-.98,3.01-1.49,6.37-1.49,10.11s.42,6.92,1.27,9.89c.85,2.97,2.12,5.52,3.86,7.64,1.74,2.12,3.86,3.78,6.37,4.93,2.55,1.15,5.52,1.74,8.96,1.74,2.46,0,4.54-.13,6.24-.38,1.74-.26,2.97-.51,3.74-.72v-22.59l-.04-.09h0Z"/>
      <path class="cls-1" d="M372.4,188.77c-3.61,0-6.37.08-8.32.26v22.84h6.03c2.93,0,5.52-.13,7.85-.42s4.29-.85,5.9-1.66c1.61-.81,2.85-1.95,3.74-3.44.89-1.49,1.32-3.44,1.32-5.9,0-2.29-.42-4.16-1.32-5.69-.89-1.53-2.04-2.72-3.52-3.57-1.49-.89-3.23-1.49-5.26-1.83-2.04-.34-4.16-.51-6.41-.51v-.08h0ZM385.27,217.22c.93,1.15,2.12,2.72,3.52,4.59s2.89,3.99,4.42,6.28c1.53,2.29,3.01,4.71,4.5,7.22,1.49,2.51,2.76,4.92,3.82,7.26h-9.26c-1.15-2.21-2.42-4.46-3.82-6.75-1.36-2.29-2.76-4.46-4.16-6.54-1.4-2.08-2.8-3.99-4.16-5.82-1.36-1.83-2.59-3.4-3.74-4.71-.76.04-1.53.09-2.34.09h-10.02v23.69h-8.49v-59.74c2.38-.59,5.05-.98,8.02-1.19,2.93-.21,5.65-.3,8.11-.3,8.53,0,14.99,1.61,19.45,4.8,4.46,3.18,6.71,7.98,6.71,14.35,0,4.03-1.06,7.47-3.18,10.32-2.12,2.84-5.26,4.97-9.38,6.37v.09h0Z"/>
      <path class="cls-1" d="M416.14,212.25c0,3.69.47,7,1.4,10.02.93,3.01,2.25,5.56,3.99,7.64,1.74,2.08,3.82,3.74,6.28,4.84,2.46,1.15,5.26,1.7,8.37,1.7s5.86-.55,8.32-1.7c2.46-1.15,4.54-2.76,6.24-4.84,1.74-2.08,3.06-4.67,3.99-7.64.93-3.01,1.4-6.33,1.4-10.02s-.47-7.01-1.4-10.02c-.93-3.01-2.25-5.56-3.99-7.64-1.74-2.08-3.82-3.74-6.24-4.84-2.46-1.15-5.22-1.7-8.32-1.7s-5.86.55-8.37,1.7c-2.46,1.15-4.58,2.76-6.28,4.84-1.74,2.08-3.06,4.67-3.99,7.64-.93,2.97-1.4,6.33-1.4,10.02h0ZM407.22,212.25c0-5.18.76-9.77,2.33-13.71,1.53-3.95,3.65-7.26,6.28-9.94,2.63-2.68,5.73-4.67,9.26-5.99,3.52-1.32,7.26-2,11.25-2s7.6.68,11.08,2c3.48,1.32,6.54,3.35,9.13,5.99,2.59,2.63,4.71,5.94,6.24,9.94,1.53,3.95,2.33,8.53,2.33,13.71s-.76,9.76-2.33,13.71c-1.53,3.95-3.61,7.26-6.24,9.94-2.63,2.67-5.69,4.67-9.13,5.99-3.48,1.36-7.17,2-11.08,2s-7.73-.68-11.25-2c-3.52-1.36-6.62-3.35-9.26-5.99-2.63-2.63-4.76-5.94-6.28-9.94-1.53-3.95-2.33-8.53-2.33-13.71h0Z"/>
      <path class="cls-1" d="M500.29,243.88c-3.95,0-7.43-.59-10.32-1.83-2.89-1.23-5.31-2.89-7.18-5.01-1.87-2.12-3.27-4.67-4.16-7.56-.89-2.89-1.36-6.07-1.36-9.47v-38.04h8.49v37.11c0,6.07,1.36,10.49,4.03,13.2,2.67,2.72,6.2,4.12,10.49,4.12,2.16,0,4.12-.34,5.9-1.02,1.78-.68,3.31-1.7,4.59-3.1,1.27-1.4,2.29-3.18,2.97-5.39.68-2.21,1.06-4.8,1.06-7.81v-37.11h8.49v38.04c0,3.4-.47,6.54-1.36,9.47-.89,2.93-2.29,5.44-4.2,7.56-1.91,2.12-4.29,3.82-7.17,5.01-2.89,1.23-6.33,1.83-10.27,1.83h0Z"/>
      <path class="cls-1" d="M554.72,188.77c-3.61,0-6.37.08-8.32.26v23.78h6.37c2.93,0,5.52-.17,7.86-.55,2.33-.38,4.29-1.02,5.9-1.91,1.61-.89,2.84-2.12,3.74-3.74.89-1.57,1.32-3.57,1.32-6.03s-.47-4.25-1.36-5.77c-.89-1.53-2.12-2.72-3.69-3.61-1.53-.89-3.35-1.53-5.39-1.87-2.04-.34-4.2-.51-6.45-.51l.04-.04h0ZM554,181.34c8.53,0,15.07,1.61,19.66,4.84,4.58,3.23,6.88,8.07,6.88,14.48,0,3.48-.64,6.5-1.87,8.96-1.23,2.46-3.06,4.5-5.43,6.03-2.38,1.53-5.22,2.67-8.62,3.35-3.4.72-7.22,1.06-11.46,1.06h-6.75v22.46h-8.49v-59.74c2.38-.59,5.05-.98,8.02-1.19,2.93-.21,5.65-.3,8.11-.3l-.04.04h0Z"/>
      <path class="cls-1" d="M118.08,0C84.03,0,43.9,23.22,43.9,23.22v-9.68H0v253.14c0,2.29,1.44,4.12,3.74,5.48,2.29,1.4,5.48,2.38,9,3.1,3.48.72,7.3,1.1,10.83,1.36,3.52.25,6.45.3,8.96.3s3.31-.04,6.84-.3c3.52-.26,7.35-.64,10.83-1.36,3.48-.72,8.7-1.7,11-3.1s3.74-3.19,3.74-5.48v-124.53c.09-.21,5.43-11.46,5.48-11.63h-20.8s-10.44-13.04-12.06-14.69h54.13v62.58s11.68,5.65,22.04,6.16h1.78c10.36-.51,22.04-6.16,22.04-6.16v-62.58h54.13c-1.66,1.66-12.06,14.69-12.06,14.69h-20.81s5.43,11.38,5.52,11.63v204.61c0,2.29,1.44,4.12,3.74,5.48,2.29,1.36,5.48,2.38,9,3.1,3.48.72,7.3,1.1,10.83,1.36s6.41.3,8.87.3,5.77-.04,9.34-.3c3.57-.26,7.35-.64,10.83-1.36,3.48-.72,6.67-1.7,9-3.1,2.29-1.4,3.74-3.18,3.74-5.48V88.74S209.19,0,118.08,0h0Z"/>
      <path class="cls-1" d="M15.68,444.28c3,0,5.28-.71,6.85-2.11,1.57-1.41,2.35-3.48,2.35-6.2v-.27c0-2.91-.81-4.98-2.42-6.2-1.61-1.23-3.88-1.84-6.78-1.84h-6.61v16.63h6.61ZM0,420.63h15.68c2.73,0,5.2.3,7.43.92,2.23.61,4.12,1.54,5.69,2.79,1.57,1.24,2.78,2.81,3.65,4.69.86,1.88,1.3,4.09,1.3,6.63v.27c0,2.58-.44,4.81-1.33,6.67-.89,1.86-2.11,3.39-3.68,4.59-1.57,1.2-3.46,2.1-5.66,2.69-2.2.59-4.6.88-7.19.88h-6.82v18.61H0v-48.74h0Z"/>
      <path class="cls-1" d="M51.74,464.12c2.54,0,4.65-.62,6.31-1.87,1.66-1.25,2.49-3.03,2.49-5.35v-3.54h-4.23c-3.14,0-5.64.42-7.5,1.26-1.86.84-2.8,2.35-2.8,4.53,0,1.5.44,2.71,1.33,3.61.89.91,2.35,1.36,4.4,1.36h0ZM49.77,470.05c-1.64,0-3.18-.2-4.64-.61-1.46-.41-2.72-1.03-3.78-1.88-1.07-.84-1.92-1.93-2.56-3.27-.64-1.34-.95-2.94-.95-4.81,0-2.09.48-3.85,1.43-5.28.96-1.43,2.25-2.59,3.89-3.47,1.64-.89,3.57-1.53,5.8-1.94,2.23-.41,4.61-.61,7.16-.61h4.43v-1.86c0-2.42-.47-4.23-1.4-5.42-.93-1.19-2.62-1.79-5.08-1.79-2.18,0-3.81.49-4.87,1.48-1.07.99-1.71,2.38-1.94,4.18h-7.98c.18-2.09.71-3.87,1.57-5.35.86-1.48,1.98-2.69,3.34-3.65,1.36-.96,2.93-1.66,4.7-2.11,1.77-.45,3.66-.68,5.66-.68s3.86.22,5.59.65c1.73.43,3.24,1.16,4.53,2.18,1.29,1.02,2.31,2.36,3.03,4.02.73,1.66,1.09,3.71,1.09,6.17v23.38h-8.11v-4.36c-1.18,1.54-2.61,2.77-4.3,3.68-1.68.91-3.89,1.36-6.61,1.36h0Z"/>
      <path class="cls-1" d="M78.53,433.71h8.25v6.68c1.13-2.27,2.6-4.03,4.4-5.29,1.79-1.25,4.19-1.9,7.19-1.94v7.7c-1.82,0-3.44.17-4.87.51-1.43.34-2.65.9-3.65,1.67-1,.77-1.76,1.79-2.28,3.03-.52,1.25-.78,2.83-.78,4.74v18.54h-8.25v-35.65h0Z"/>
      <path class="cls-1" d="M118.34,469.98c-3.54,0-6.23-.91-8.04-2.74-1.82-1.82-2.73-4.44-2.73-7.85v-19.54h-4.77v-6.14h4.77v-7.84h8.25v7.84h7.84v6.14h-7.84v18.75c0,1.59.35,2.75,1.06,3.48.71.73,1.71,1.09,3.03,1.09,1.59,0,2.93-.22,4.02-.68v6.6c-.64.23-1.41.44-2.32.62-.91.18-2,.28-3.27.28h0Z"/>
      <path class="cls-1" d="M164.08,463.57c3.09,0,5.5-1.05,7.23-3.16,1.73-2.11,2.59-5,2.59-8.67v-.48c0-3.67-.86-6.56-2.59-8.67-1.73-2.11-4.14-3.16-7.23-3.16s-5.51,1.04-7.26,3.13c-1.75,2.09-2.62,4.96-2.62,8.64v.54c0,3.67.86,6.56,2.59,8.67,1.73,2.11,4.16,3.16,7.29,3.16h0ZM164.01,470.05c-2.64,0-5.07-.43-7.29-1.3-2.23-.86-4.16-2.09-5.79-3.68-1.64-1.59-2.91-3.5-3.82-5.73-.91-2.23-1.36-4.7-1.36-7.43v-.55c0-2.77.47-5.28,1.4-7.53.93-2.25,2.22-4.18,3.85-5.8,1.64-1.61,3.57-2.86,5.79-3.75,2.23-.88,4.66-1.33,7.29-1.33s5,.43,7.23,1.29c2.23.87,4.16,2.1,5.79,3.72,1.64,1.61,2.92,3.53,3.85,5.76.93,2.23,1.4,4.71,1.4,7.43v.55c0,2.77-.47,5.29-1.4,7.54-.93,2.25-2.22,4.18-3.85,5.79-1.64,1.62-3.57,2.85-5.79,3.71-2.23.86-4.66,1.3-7.29,1.3h0Z"/>
      <path class="cls-1" d="M191.49,439.85h-4.84v-6.14h4.84v-4.77c0-3.95,1.03-6.95,3.1-9,2.07-2.05,5.03-3.07,8.89-3.07,1,0,1.84.06,2.52.17.68.11,1.41.28,2.18.51v6.41c-.5-.18-1.06-.33-1.67-.44-.61-.11-1.31-.17-2.08-.17-1.68,0-2.89.49-3.61,1.46-.73.98-1.09,2.24-1.09,3.79v5.11h8.11v6.14h-8.11v29.52h-8.25v-29.52h0Z"/>
      <path class="cls-1" d="M246.09,450.69h10.7l-5.32-18.75-5.39,18.75h0ZM243.36,420.63h18.06l15.48,48.74h-14.79l-2.59-9.07h-16.16l-2.59,9.07h-13.02l15.61-48.74h0Z"/>
      <path class="cls-1" d="M297.42,470.19c-2.68,0-5.16-.39-7.43-1.16-2.27-.77-4.25-1.93-5.93-3.48-1.68-1.5-3-3.39-3.95-5.66-.95-2.27-1.43-4.91-1.43-7.91v-.55c0-2.95.5-5.59,1.5-7.91,1-2.32,2.36-4.27,4.09-5.86,1.73-1.59,3.74-2.8,6.03-3.65,2.29-.84,4.76-1.26,7.4-1.26,2.18,0,4.28.25,6.31.75,2.02.5,3.83,1.32,5.42,2.45,1.59,1.18,2.9,2.7,3.92,4.57,1.02,1.86,1.62,4.16,1.81,6.89h-11.45c-.27-1.68-.85-2.97-1.74-3.85-.89-.89-2.21-1.33-3.99-1.33-2.18,0-3.86.76-5.04,2.29-1.18,1.52-1.77,3.78-1.77,6.78v.55c0,3.14.59,5.49,1.77,7.06,1.18,1.57,2.93,2.35,5.25,2.35,1.73,0,3.13-.5,4.23-1.5,1.09-1,1.75-2.48,1.98-4.43h10.98c-.18,4.5-1.77,8.1-4.77,10.81-3,2.7-7.39,4.06-13.16,4.06h0Z"/>
      <path class="cls-1" d="M337.71,470.19c-2.68,0-5.16-.39-7.43-1.16-2.27-.77-4.25-1.93-5.93-3.48-1.68-1.5-3-3.39-3.96-5.66-.95-2.27-1.43-4.91-1.43-7.91v-.55c0-2.95.5-5.59,1.5-7.91,1-2.32,2.36-4.27,4.09-5.86,1.73-1.59,3.74-2.8,6.03-3.65,2.3-.84,4.76-1.26,7.4-1.26,2.18,0,4.29.25,6.31.75,2.02.5,3.83,1.32,5.42,2.45,1.59,1.18,2.9,2.7,3.92,4.57,1.02,1.86,1.62,4.16,1.81,6.89h-11.45c-.27-1.68-.85-2.97-1.74-3.85-.89-.89-2.21-1.33-3.99-1.33-2.18,0-3.86.76-5.04,2.29-1.18,1.52-1.77,3.78-1.77,6.78v.55c0,3.14.59,5.49,1.77,7.06,1.18,1.57,2.93,2.35,5.25,2.35,1.73,0,3.14-.5,4.23-1.5,1.09-1,1.75-2.48,1.98-4.43h10.98c-.18,4.5-1.77,8.1-4.77,10.81s-7.39,4.06-13.16,4.06h0Z"/>
      <path class="cls-1" d="M384.82,447.49c-.09-2.18-.66-3.84-1.7-4.98-1.05-1.14-2.57-1.7-4.57-1.7-1.86,0-3.39.57-4.57,1.7-1.18,1.14-1.93,2.8-2.25,4.98h13.09ZM378.61,470.19c-2.82,0-5.41-.4-7.77-1.19-2.36-.8-4.39-1.97-6.07-3.51-1.73-1.54-3.08-3.45-4.06-5.73-.98-2.27-1.47-4.86-1.47-7.77v-.55c0-2.86.5-5.44,1.5-7.74,1-2.3,2.36-4.26,4.09-5.9,1.73-1.64,3.77-2.89,6.14-3.75,2.36-.86,4.88-1.3,7.57-1.3,2.45,0,4.77.37,6.95,1.09,2.18.73,4.11,1.84,5.8,3.34,1.64,1.5,2.94,3.41,3.92,5.72.98,2.32,1.47,5.07,1.47,8.25v3.21h-25.09c.18,2.36.92,4.19,2.21,5.49,1.3,1.3,3.03,1.94,5.22,1.94,2.04,0,3.53-.41,4.47-1.23.93-.82,1.51-1.82,1.74-3h11.45c-.54,4.04-2.34,7.16-5.39,9.34-3.05,2.18-7.27,3.27-12.68,3.27h0Z"/>
      <path class="cls-1" d="M402.47,433.71h12.2v5.77c.96-1.88,2.4-3.46,4.33-4.77,1.93-1.31,4.4-1.96,7.4-1.96,3.45,0,6.26,1.1,8.42,3.31,2.16,2.21,3.24,5.58,3.24,10.13v23.18h-12.2v-20.67c0-2.04-.41-3.55-1.23-4.52-.82-.97-2.11-1.46-3.88-1.46s-3.28.55-4.4,1.63c-1.11,1.09-1.67,2.79-1.67,5.1v19.92h-12.2v-35.65h0Z"/>
      <path class="cls-1" d="M459.74,470.19c-4.04,0-7.15-.99-9.3-2.96-2.16-1.98-3.24-5.08-3.24-9.31v-15.88h-4.29v-8.32h4.29v-7.43h12.2v7.43h7.02v8.32h-7.02v14.73c0,1.23.31,2.16.92,2.79.61.64,1.51.95,2.69.95.68,0,1.29-.04,1.84-.14.54-.09,1.09-.25,1.63-.48v9.27c-.77.23-1.73.46-2.86.68-1.14.23-2.43.34-3.89.34h0Z"/>
      <path class="cls-1" d="M484.35,470.19c-1.73,0-3.32-.26-4.77-.78-1.45-.52-2.7-1.33-3.75-2.42-1.09-1.09-1.94-2.46-2.56-4.12-.61-1.66-.92-3.62-.92-5.9v-23.25h12.2v21.27c0,2,.42,3.5,1.26,4.5.84,1,2.1,1.5,3.78,1.5,1.86,0,3.34-.55,4.43-1.64,1.09-1.09,1.64-2.8,1.64-5.11v-20.52h12.2v35.65h-12.2v-5.52c-.95,1.86-2.33,3.38-4.12,4.57-1.8,1.18-4.19,1.77-7.19,1.77h0Z"/>
      <path class="cls-1" d="M515.64,433.71h12.2v7.09c1.14-2.68,2.65-4.62,4.53-5.83,1.88-1.2,4.21-1.78,6.99-1.74v11.38c-3.73-.09-6.58.48-8.55,1.71s-2.97,3.27-2.97,6.14v16.91h-12.2v-35.65h0Z"/>
      <path class="cls-1" d="M568.67,447.49c-.09-2.18-.66-3.84-1.7-4.98-1.05-1.14-2.57-1.7-4.57-1.7-1.86,0-3.39.57-4.57,1.7-1.18,1.14-1.93,2.8-2.25,4.98h13.09ZM562.47,470.19c-2.82,0-5.41-.4-7.77-1.19-2.37-.8-4.39-1.97-6.07-3.51-1.73-1.54-3.08-3.45-4.06-5.73-.98-2.27-1.47-4.86-1.47-7.77v-.55c0-2.86.5-5.44,1.5-7.74,1-2.3,2.36-4.26,4.09-5.9,1.73-1.64,3.77-2.89,6.14-3.75,2.36-.86,4.88-1.3,7.57-1.3,2.46,0,4.77.37,6.95,1.09,2.18.73,4.11,1.84,5.79,3.34,1.64,1.5,2.94,3.41,3.92,5.72.98,2.32,1.47,5.07,1.47,8.25v3.21h-25.09c.18,2.36.92,4.19,2.21,5.49,1.3,1.3,3.03,1.94,5.22,1.94,2.04,0,3.53-.41,4.47-1.23.93-.82,1.51-1.82,1.74-3h11.45c-.54,4.04-2.34,7.16-5.39,9.34-3.05,2.18-7.27,3.27-12.68,3.27h0Z"/>
    </g>
  </g>
</svg>