<?xml version="1.0" encoding="UTF-8"?>
<svg id="Layer_1" xmlns="http://www.w3.org/2000/svg" version="1.1" viewBox="0 0 320 100">
  <!-- Generator: Adobe Illustrator 29.3.1, SVG Export Plug-In . SVG Version: 2.1.0 Build 151)  -->
  <defs>
    <style>
      .st0 {
        fill: #00c7f9;
      }

      .st1 {
        fill: #0095bb;
      }

      .st2 {
        fill: #001e25;
      }

      .st3 {
        fill: #80e3fc;
      }

      .st4 {
        fill: #f04b4c;
      }

      .st5 {
        fill: #632064;
      }
    </style>
  </defs>
  <g>
    <path class="st2" d="M111.27,32.19c6.86,0,11.01,2.92,13.49,6.27l-5.03,4.67c-1.97-2.77-4.67-4.16-8.1-4.16-6.42,0-10.65,4.81-10.65,11.67s4.23,11.74,10.65,11.74c3.43,0,6.13-1.46,8.1-4.16l5.03,4.67c-2.48,3.36-6.64,6.27-13.49,6.27-10.72,0-18.24-7.81-18.24-18.53s7.51-18.45,18.24-18.45h0Z"/>
    <path class="st2" d="M147.16,32.19c10.58,0,17.36,8.1,17.36,19.18v1.82h-27.21c.58,5.33,4.6,9.7,11.23,9.7,3.43,0,7.51-1.38,9.99-3.87l3.5,5.03c-3.5,3.36-8.68,5.1-14.3,5.1-10.58,0-18.45-7.37-18.45-18.53,0-10.21,7.44-18.45,17.87-18.45h0ZM137.24,47.8h19.84c-.15-4.16-2.99-9.34-9.92-9.34-6.56,0-9.55,5.03-9.92,9.34Z"/>
    <path class="st2" d="M175.24,73.13c2.84,3.28,6.49,4.52,11.16,4.52,5.03,0,10.43-3.67,10.43-10.89v-4.23c-2.7,3.5-6.71,6.35-11.31,6.35-8.97,0-15.61-7-15.61-18.6s6.56-18.09,15.61-18.09c4.45,0,8.46,2.04,11.31,5.76v-5.76h7.66v34.28c0,12.69-9.41,17.45-18.09,17.45-5.98,0-10.43-1.31-14.73-5.25l3.57-5.54ZM196.83,43.72c-1.68-2.63-5.47-4.74-9.04-4.74-6.05,0-9.92,4.52-9.92,11.31s3.87,11.31,9.92,11.31c3.57,0,7.37-2.11,9.04-4.74v-13.13h0Z"/>
    <path class="st2" d="M227.62,32.19c10.58,0,17.36,8.1,17.36,19.18v1.82h-27.21c.58,5.33,4.6,9.7,11.23,9.7,3.43,0,7.51-1.38,9.99-3.87l3.5,5.03c-3.5,3.36-8.68,5.1-14.3,5.1-10.58,0-18.45-7.37-18.45-18.53,0-10.21,7.44-18.45,17.87-18.45h0ZM217.7,47.8h19.84c-.15-4.16-2.99-9.34-9.92-9.34-6.56,0-9.55,5.03-9.92,9.34h0Z"/>
    <path class="st2" d="M262.49,53.79l-4.89,5.03v9.94h-7.66V16.14h7.66v33.93l16.18-17.87h9.48l-15.3,16.85,15.3,19.72h-9.63l-11.14-14.98h0Z"/>
    <path class="st2" d="M312.34,63.49c-2.7,3.5-6.78,5.69-11.31,5.69-9.04,0-15.68-6.86-15.68-18.45s6.56-18.53,15.68-18.53c4.38,0,8.53,2.04,11.31,5.76v-5.76h7.66v36.57h-7.66v-5.28h0ZM312.34,43.79c-1.75-2.63-5.47-4.74-9.12-4.74-6.05,0-9.92,4.81-9.92,11.67s3.87,11.67,9.92,11.67c3.65,0,7.37-2.04,9.12-4.67v-13.93h0Z"/>
  </g>
  <g>
    <path class="st0" d="M71.41,52.38c1-2.7,1.55-5.48,1.56-8.23,0-2.04-.29-3.93-.84-5.65-.84-2.6-2.27-4.82-4.17-6.56h0c-4.09,15.96-18.77,30.99-36.22,35.78-5.95,1.63-11.58,1.9-16.56.99.73.92,1.53,1.78,2.4,2.58,5.1,5.23,12.32,8.42,20.82,8.42,2.47,0,5.06-.24,7.72-.81,11.26-5.64,20.53-15.42,25.17-26.22l.12-.29h0Z"/>
    <path class="st3" d="M68.06,31.53c.01-.05.03-.11.04-.16.04-.15.07-.29.1-.44,0-.02,0-.04.01-.06.04-.16.07-.33.11-.49.01-.05.02-.11.03-.16.02-.11.05-.23.07-.34.01-.06.03-.13.04-.19.02-.1.04-.21.06-.31.01-.06.02-.13.04-.19.02-.11.04-.23.06-.34,0-.05.02-.11.03-.16.03-.16.05-.33.08-.49,0-.04.01-.07.02-.11.02-.13.04-.26.05-.39,0-.06.02-.12.02-.18.01-.11.03-.21.04-.32,0-.06.01-.13.02-.19.01-.11.02-.21.04-.32,0-.06.01-.12.02-.18.01-.13.02-.25.04-.38,0-.04,0-.08.01-.12.01-.16.03-.33.04-.49,0-.05,0-.1,0-.14,0-.12.01-.24.02-.36,0-.06,0-.12,0-.18,0-.11.01-.22.01-.33,0-.06,0-.12,0-.18,0-.11,0-.23.01-.34,0-.05,0-.11,0-.16,0-.16,0-.33,0-.5,0-.58-.01-1.15-.04-1.71-3.09-3.52-7.81-5.54-13.37-5.54-2.04,0-4.2.27-6.43.84-13.49,3.43-24.84,16.69-24.87,29.07,0,1.13.09,2.22.26,3.26.05.28.26.41.52.41.34,0,.75-.24.91-.65,3.54-9.29,12.36-17.61,22.68-20.44,2.42-.67,4.76-.98,6.97-.98,4.92,0,9.18,1.58,12.24,4.38,0-.03.01-.05.02-.08.03-.11.06-.23.09-.34h0Z"/>
    <path class="st1" d="M74.51,37.21c0-.11,0-.23,0-.34,0-.08,0-.16,0-.23,0-.11-.01-.23-.01-.34,0-.08,0-.15-.01-.23,0-.13-.02-.25-.03-.37,0-.06,0-.12-.01-.18-.01-.18-.03-.35-.05-.53,0-.06-.01-.13-.02-.19-.01-.12-.02-.23-.04-.35,0-.07-.02-.15-.03-.22-.01-.11-.03-.22-.04-.32-.01-.07-.02-.14-.03-.21-.02-.11-.03-.23-.05-.34-.01-.06-.02-.13-.03-.19-.02-.13-.04-.26-.07-.4,0-.04-.01-.08-.02-.12-.78-4.27-2.51-7.98-5-11.02.03.58.04,1.12.04,1.71,0,.16,0,.33,0,.5,0,.05,0,.11,0,.16,0,.11,0,.23-.01.34,0,.06,0,.12,0,.18,0,.11,0,.22-.01.33,0,.06,0,.12,0,.18,0,.12-.01.24-.02.36,0,.05,0,.1,0,.14-.01.16-.02.33-.04.49,0,.04,0,.08-.01.12-.01.13-.02.25-.04.38,0,.06-.01.12-.02.18-.01.11-.02.21-.04.32,0,.06-.01.13-.02.19-.01.11-.03.21-.04.32,0,.06-.01.12-.02.18-.02.13-.04.26-.05.39,0,.04-.01.07-.02.11-.03.16-.05.33-.08.49,0,.05-.02.11-.03.16-.02.11-.04.23-.06.34-.01.06-.02.13-.04.19-.02.1-.04.21-.06.31-.01.06-.03.13-.04.19-.02.11-.05.23-.07.34-.01.05-.02.11-.03.16-.04.16-.07.33-.11.49,0,.02,0,.04-.01.06-.03.15-.07.29-.1.44-.01.05-.03.11-.04.16-.03.11-.06.23-.09.34,0,.03-.01.05-.02.08,1.9,1.74,3.33,3.96,4.17,6.56.55,1.72.85,3.61.84,5.65,0,2.75-.56,5.53-1.56,8.23,1.51-3.58,2.51-7.27,2.91-10.96,0-.01,0-.02,0-.03.01-.14.03-.27.04-.4,0-.02,0-.05,0-.07.01-.12.02-.24.03-.36,0-.04,0-.07,0-.11,0-.11.02-.22.03-.33,0-.05,0-.09,0-.14,0-.1.01-.2.02-.3,0-.05,0-.11,0-.16,0-.09,0-.18.01-.28,0-.06,0-.12,0-.18,0-.09,0-.17,0-.26,0-.06,0-.13,0-.2,0-.08,0-.16,0-.24,0-.13,0-.27,0-.4,0-.17,0-.35,0-.52,0-.08,0-.15,0-.23h0Z"/>
    <path class="st4" d="M.43,60.63c.1.11.19.22.29.33.02.02.04.05.06.07.1.11.2.21.3.32.02.02.04.04.06.06.1.11.21.22.32.33.01.01.03.03.04.04.11.12.23.23.35.34,0,0,.01.01.02.02,3.48,3.34,8.04,5.61,13.31,6.57-2.8-3.52-4.62-7.95-5.13-13.14-1-10.22,3.27-21.21,10.81-30.21.92-1.09.35-2.14-.63-2.14-.36,0-.77.14-1.18.46C7.11,33.09-.61,47.14.04,60.17c.11.14.22.27.34.4.02.02.04.04.06.06h0Z"/>
    <path class="st5" d="M17.57,71.29c-.86-.79-1.66-1.65-2.39-2.58-5.27-.96-9.83-3.23-13.31-6.57,0,0-.01-.01-.02-.02-.12-.11-.23-.23-.35-.34-.01-.01-.03-.03-.04-.05-.11-.11-.21-.21-.31-.33-.02-.02-.04-.04-.06-.06-.1-.11-.2-.21-.3-.32-.02-.02-.04-.05-.06-.07-.1-.11-.19-.22-.29-.33-.02-.02-.04-.04-.06-.06-.11-.13-.23-.26-.34-.4,0,.15.02.3.03.45.28,4.11,1.39,7.79,3.18,10.95,0,.01.01.03.02.04.17.29.34.58.52.86.03.04.05.08.08.12.09.14.18.27.26.41.03.05.07.1.1.15.05.07.1.15.15.22.04.06.09.13.13.19.07.1.14.19.21.28.06.08.11.15.17.23.04.06.09.12.13.18.08.11.16.21.25.32.04.05.08.09.11.14.07.09.14.18.22.26.04.04.07.09.11.13.1.11.2.23.3.34.03.03.06.07.09.1.09.1.18.2.28.3.02.02.04.05.06.07.11.12.23.24.34.36.02.03.05.05.07.07.24.25.49.49.74.72.02.01.03.03.05.04.27.25.54.49.82.72,0,0,0,0,0,0,4.62,3.87,10.86,6.03,18,6.03.63,0,1.27-.02,1.92-.05h.01c.43-.02.85-.05,1.28-.09.01,0,.02,0,.03,0,.43-.04.85-.08,1.29-.14.01,0,.03,0,.05,0,.43-.05.85-.11,1.28-.18.02,0,.04,0,.07-.01.42-.07.85-.14,1.28-.22.03,0,.06-.01.09-.02.42-.08.84-.17,1.27-.26.04,0,.07-.02.11-.03.42-.09.84-.2,1.27-.3.04-.01.08-.02.12-.03.21-.05.42-.11.63-.17.26-.07.51-.14.77-.22.03,0,.06-.02.09-.03.25-.07.49-.15.74-.23.04-.01.07-.02.11-.03.25-.08.5-.16.75-.24.01,0,.03-.01.04-.01.25-.08.5-.17.75-.26.01,0,.02,0,.04-.01,1.15-.41,2.29-.87,3.41-1.36.76-.34,1.52-.69,2.26-1.06-2.66.57-5.25.81-7.72.81-8.5,0-15.73-3.19-20.82-8.42h0Z"/>
  </g>
</svg>