<?xml version="1.0" encoding="UTF-8" standalone="no"?>
<svg
   width="256.84286"
   height="66.868698"
   viewBox="0 0 256.84286 66.868698"
   fill="none"
   version="1.1"
   id="svg61"
   sodipodi:docname="logo-ec--en.svg"
   inkscape:version="1.4 (86a8ad7, 2024-10-11)"
   xmlns:inkscape="http://www.inkscape.org/namespaces/inkscape"
   xmlns:sodipodi="http://sodipodi.sourceforge.net/DTD/sodipodi-0.dtd"
   xmlns="http://www.w3.org/2000/svg"
   xmlns:svg="http://www.w3.org/2000/svg">
  <defs
     id="defs61" />
  <sodipodi:namedview
     id="namedview61"
     pagecolor="#ffffff"
     bordercolor="#000000"
     borderopacity="0.25"
     inkscape:showpageshadow="2"
     inkscape:pageopacity="0.0"
     inkscape:pagecheckerboard="0"
     inkscape:deskcolor="#d1d1d1"
     inkscape:zoom="4.4273146"
     inkscape:cx="121.85716"
     inkscape:cy="22.925861"
     inkscape:window-width="1920"
     inkscape:window-height="1017"
     inkscape:window-x="-8"
     inkscape:window-y="-5"
     inkscape:window-maximized="1"
     inkscape:current-layer="svg61" />
  <path
     d="m 86.872362,27.751 h -0.0567 -58.8148 v 38.944 h 58.8148 0.0567 z"
     fill="#e0e5e4"
     id="path1" />
  <path
     d="m 57.969862,33.6353 h 2.0505 l -1.6538,1.2737 0.644,2.0175 -1.6435,-1.2431 -1.6435,1.2431 0.644,-2.0175 -1.6641,-1.2737 h 2.0454 l 0.6182,-1.9665 z"
     fill="#0e1514"
     id="path2" />
  <path
     d="m 58.041962,59.6082 h 2.0505 l -1.6486,1.2278 0.6388,1.9411 -1.6435,-1.1973 -1.6434,1.1973 0.6491,-1.9411 -1.6692,-1.2278 h 2.0453 l 0.6182,-1.8902 z"
     fill="#0e1514"
     id="path3" />
  <path
     d="m 64.538562,57.8913 h 2.0557 l -1.6538,1.2227 0.644,1.9411 -1.6487,-1.1973 -1.6434,1.1973 0.6491,-1.9411 -1.6692,-1.2227 h 2.0453 l 0.6182,-1.8953 z"
     fill="#0e1514"
     id="path4" />
  <path
     d="m 64.538562,35.3676 h 2.0557 l -1.6538,1.2278 0.644,1.9411 -1.6487,-1.1973 -1.6434,1.1973 0.6491,-1.9411 -1.6692,-1.2278 h 2.0453 l 0.6182,-1.8902 z"
     fill="#0e1514"
     id="path5" />
  <path
     d="m 69.365962,40.1413 h 2.0453 l -1.6486,1.2228 0.6388,1.941 -1.6434,-1.1972 -1.6435,1.1972 0.6491,-1.941 -1.6692,-1.2228 h 2.0453 l 0.6183,-1.8952 z"
     fill="#0e1514"
     id="path6" />
  <path
     d="m 69.365962,53.1838 h 2.0453 l -1.6486,1.2278 0.6388,1.9411 -1.6434,-1.1973 -1.6435,1.1973 0.6491,-1.9411 -1.6692,-1.2278 h 2.0453 l 0.6183,-1.8902 z"
     fill="#0e1514"
     id="path7" />
  <path
     d="m 71.169162,46.5606 h 2.0556 l -1.6538,1.2278 0.644,1.9411 -1.6486,-1.1972 -1.6435,1.1972 0.6492,-1.9411 -1.6692,-1.2278 h 2.0453 l 0.6182,-1.8901 z"
     fill="#0e1514"
     id="path8" />
  <path
     d="m 51.349562,35.3879 h 2.0453 l -1.6486,1.2227 0.6389,1.9411 -1.6435,-1.1972 -1.6435,1.1972 0.6492,-1.9411 -1.6641,-1.2227 h 2.0401 l 0.6183,-1.8952 z"
     fill="#0e1514"
     id="path9" />
  <path
     d="m 46.656162,40.1565 h 2.0556 l -1.6538,1.2228 0.6389,1.941 -1.6435,-1.1972 -1.6435,1.1972 0.6492,-1.941 -1.6693,-1.2228 h 2.0454 l 0.6182,-1.8952 z"
     fill="#0e1514"
     id="path10" />
  <path
     d="m 44.914762,46.581 h 2.0505 l -1.6486,1.2228 0.6388,1.941 -1.6435,-1.1921 -1.6434,1.1921 0.6491,-1.941 -1.6641,-1.2228 h 2.0402 l 0.6182,-1.8952 z"
     fill="#0e1514"
     id="path11" />
  <path
     d="m 46.656162,53.199 h 2.0556 l -1.6538,1.2279 0.6389,1.9411 -1.6435,-1.1973 -1.6435,1.1973 0.6492,-1.9411 -1.6693,-1.2279 h 2.0454 l 0.6182,-1.8901 z"
     fill="#0e1514"
     id="path12" />
  <path
     d="m 51.416562,57.9066 h 2.0453 l -1.6486,1.2227 0.6388,1.9411 -1.6435,-1.1973 -1.6434,1.1973 0.6491,-1.9411 -1.6641,-1.2227 h 2.0402 l 0.6182,-1.8952 z"
     fill="#0e1514"
     id="path13" />
  <path
     d="m 95.816062,0.0050958 c 0,0 12.091798,19.0491042 14.306798,22.5390042 2.21,3.4899 4.74,6.2563 13.689,8.1312 8.949,1.8748 12.844,2.7613 12.844,2.7613 v 0.6776 c 0,0 -5.688,-1.1973 -13.004,-2.8123 -7.316,-1.615 -10.309,-2.1601 -13.642,-6.7505 C 107.23286,20.7304 95.816062,3.64272 95.816062,3.64272 V 0 Z"
     fill="#e0e5e4"
     id="path14" />
  <path
     d="m 95.816062,21.7595 c 0,0 11.009798,11.4071 14.193798,14.683 3.38,3.4745 7.702,4.7584 13.699,5.8181 5.724,1.0088 12.942,2.1755 12.942,2.1755 v 0.6419 c 0,0 -6.78,-1.1005 -12.942,-2.1398 -6.043,-1.024 -10.273,-1.5946 -13.735,-4.7483 -3.102,-2.8224 -14.157798,-13.0781 -14.157798,-13.0781 v -3.3574 z"
     fill="#e0e5e4"
     id="path15" />
  <path
     d="m 95.816062,26.9001 c 0,0 10.468798,9.6137 14.193798,12.8998 3.426,3.0212 6.203,3.9637 13.735,5.2832 7.532,1.3196 12.906,2.1398 12.906,2.1398 v 0.6776 c 0,0 -6.816,-1.1055 -12.942,-2.0735 -6.126,-0.9629 -10.031,-1.345 -13.699,-4.2847 -4.23,-3.3931 -14.193798,-11.5038 -14.193798,-11.5038 V 26.895 Z"
     fill="#e0e5e4"
     id="path16" />
  <path
     d="m 95.816062,32.377 c 0,0 11.957798,9.3844 14.193798,11.0249 2.236,1.6405 5.193,3.5561 13.771,4.7839 8.506,1.2177 12.87,1.8189 12.87,1.8189 v 0.7132 c 0,0 -7.713,-1.1055 -12.87,-1.7475 -5.157,-0.6419 -9.109,-0.917 -13.735,-3.9637 -4.503,-2.9651 -14.229798,-9.736 -14.229798,-9.736 z"
     fill="#e0e5e4"
     id="path17" />
  <path
     d="m 95.816062,37.6448 c 0,0 11.993798,7.8968 14.265798,9.1501 2.272,1.2482 4.941,3.2861 13.699,4.3917 8.758,1.1055 12.87,1.6048 12.87,1.6048 v 0.6776 c 0,0 -7.244,-0.7846 -12.906,-1.3908 -5.657,-0.6063 -9.516,-1.4266 -13.735,-3.7141 -4.22,-2.2824 -14.193798,-8.0496 -14.193798,-8.0496 z"
     fill="#e0e5e4"
     id="path18" />
  <path
     d="m 95.816062,42.9127 c 0,0 10.602798,5.7061 14.193798,7.4842 4.003,1.9869 7.465,2.9396 13.735,3.6784 6.157,0.7234 12.906,1.4265 12.906,1.4265 v 0.6419 c 0,0 -6.239,-0.6623 -12.906,-1.2839 -6.61,-0.6215 -8.964,-0.9068 -13.735,-3.0007 -4.266,-1.8749 -14.193798,-6.4499 -14.193798,-6.4499 v -2.5015 z"
     fill="#e0e5e4"
     id="path19" />
  <path
     d="m 95.816062,48.252 c 0,0 8.376798,3.5459 14.265798,5.8589 5.791,2.2723 10.216,2.4659 13.735,2.8582 1.551,0.1732 12.834,1.3195 12.834,1.3195 v 0.6419 c 0,0 -6.739,-0.5349 -12.87,-1.0699 -6.131,-0.5349 -8.774,-0.7642 -13.735,-2.3894 -5.023,-1.6507 -14.229798,-4.8247 -14.229798,-4.8247 v -2.3894 z"
     fill="#e0e5e4"
     id="path20" />
  <path
     d="m 95.816062,53.6983 c 0,0 8.459798,2.5932 14.229798,4.0911 5.77,1.4978 11.066,2.1092 13.735,2.2824 2.669,0.1783 12.875,0.9986 12.875,0.9986 v 0.6062 c 0,0 -5.806,-0.3923 -12.911,-0.8915 -5.744,-0.4025 -10.355,-0.8305 -13.735,-1.5692 -3.74,-0.8152 -14.193798,-3.2708 -14.193798,-3.2708 z"
     fill="#e0e5e4"
     id="path21" />
  <path
     d="m 95.816062,59.0529 c 0,0 6.918798,1.1819 14.229798,2.3792 5.482,0.8967 12.906,1.4622 13.699,1.4978 0.793,0.0357 12.906,0.8559 12.906,0.8559 v 0.642 c 0,0 -7.754,-0.3974 -12.906,-0.6776 -5.368,-0.2955 -10.706,-0.6165 -13.735,-0.9273 -6.79,-0.6979 -14.193798,-1.6252 -14.193798,-1.6252 z"
     fill="#e0e5e4"
     id="path22" />
  <path
     d="m 95.816062,64.5959 c 0,0 10.911798,0.4076 14.229798,0.4789 3.318,0.0713 26.605,0.9985 26.605,0.9985 V 66.7 H 95.816062 Z"
     fill="#e0e5e4"
     id="path23" />
  <path
     d="m 123.73986,33.62 c -9.876,-2.1041 -12.112,-5.6755 -13.771,-7.8866 C 108.30986,23.5172 95.810962,5.45642 95.810962,5.45642 v 3.32175 c 0.4946,0.63684 11.189898,15.23833 14.193898,19.05933 3.385,4.305 8.686,5.2832 13.735,6.3531 5.044,1.0699 12.911,2.5626 12.911,2.5626 v -0.5706 c 0,0 -10.356,-2.0226 -12.911,-2.5626 z"
     fill="#e0e5e4"
     id="path24" />
  <path
     d="m 123.73986,36.4782 c -8.109,-1.5692 -11.391,-4.1064 -13.771,-7.1734 -2.381,-3.0721 -14.157898,-18.7791 -14.157898,-18.7791 v 3.8618 c 0.4946,0.5757 11.266898,13.5774 14.157898,16.8482 3.369,3.8159 8.073,4.8196 13.771,5.8538 5.698,1.0343 12.906,2.3895 12.906,2.3895 v -0.5707 c 0,0 -8.228,-1.5233 -12.906,-2.425 z"
     fill="#e0e5e4"
     id="path25" />
  <path
     d="m 123.73986,39.4382 c -8.434,-1.6201 -10.165,-2.9499 -13.735,-6.8167 -2.247,-2.4302 -13.709598,-15.814 -14.193898,-16.3796 v 3.5663 c 0,0 10.710898,11.3001 14.157898,14.6372 4.518,4.3814 8.758,4.7126 13.771,5.6041 5.013,0.8916 12.906,2.3181 12.906,2.3181 v -0.6062 c 0,0 -9.532,-1.6711 -12.906,-2.3181 z"
     fill="#e0e5e4"
     id="path26" />
  <path
     d="m 0.005151,27.9904 c 0,0 27.923611,-2.9448 35.744311,-4.0299 12.3647,-1.7119 22.4831,-3.5358 31.8442,-17.72454 0,0 0.0103,-0.80496 0,-1.16669 -5.7341,8.62533 -13.6424,14.50973 -24.5336,16.21643 C 32.421262,22.9568 0,25.3972 0,25.3972 v 2.5932 z"
     fill="#e0e5e4"
     id="path27" />
  <path
     d="m 0,24.4699 c 0,0 25.878262,-3.2045 34.404762,-4.3865 13.4878,-1.8647 22.9726,-3.5408 33.1838,-19.01857 0,0 0.0051,-0.66741 0,-1.05970305 C 61.334062,9.41506 53.611262,15.4931 41.730862,17.3577 30.123462,19.1816 0,21.8411 0,21.8411 v 2.6339 z"
     fill="#e0e5e4"
     id="path28" />
  <path
     d="M 26.419262,64.6213 H 0.015457 v 2.0685 h 26.403805 z"
     fill="#e0e5e4"
     id="path29" />
  <path
     d="m 67.588562,22.7428 c 0,0 0.0154,-1.2176 0.0103,-1.4775 -1.2417,1.8698 -2.8748,3.5663 -4.7604,5.0591 h 1.8495 c 1.0407,-1.0597 2.0144,-2.2468 2.8954,-3.5816 z"
     fill="#e0e5e4"
     id="path30" />
  <path
     d="m 67.588562,17.2405 c 0,0 0.0103,-1.0801 0.0051,-1.3756 -2.9933,4.5038 -7.4497,8.1006 -12.6017,10.485 l 3.0397,-0.0102 c 3.5136,-2.0226 6.78,-4.8961 9.5517,-9.0992 z"
     fill="#e0e5e4"
     id="path31" />
  <path
     d="m 67.588562,11.7383 c 0,0 0.0103,-0.9426 0,-1.2686 -5.2087,7.8407 -13.3075,13.2055 -23.2096,14.7594 -2.3441,0.3668 -6.1617,0.7743 -10.5976,1.187 l 12.0917,-0.0407 c 7.9804,-1.7577 15.4507,-5.1559 21.7052,-14.6371 z"
     fill="#e0e5e4"
     id="path32" />
  <path
     d="m 26.424362,61.1365 c -13.4723,0.0714 -26.408905,0.1274 -26.408905,0.1274 v 2.1551 c 0,0 13.549605,-0.0968 26.408905,-0.2038 z"
     fill="#e0e5e4"
     id="path33" />
  <path
     d="M 26.424362,57.4378 C 13.044762,57.5856 0.0103,57.6976 0.0103,57.6976 v 2.201 c 0,0 13.688762,-0.1784 26.414062,-0.3771 z"
     fill="#e0e5e4"
     id="path34" />
  <path
     d="M 26.419262,53.7288 C 13.137462,53.9581 0.0103,54.1313 0.0103,54.1313 v 2.2468 c 0,0 13.832962,-0.27 26.408962,-0.5655 z"
     fill="#e0e5e4"
     id="path35" />
  <path
     d="M 26.424362,49.9995 C 13.240562,50.3205 0.0103,50.56 0.0103,50.56 v 2.2875 c 0,0 13.992762,-0.377 26.414062,-0.7693 v -2.0838 z"
     fill="#e0e5e4"
     id="path36" />
  <path
     d="M 26.429562,46.26 C 13.343562,46.6727 0.0103,46.9987 0.0103,46.9987 v 2.3334 c 0,0 14.162762,-0.4891 26.419262,-0.9883 v -2.0787 z"
     fill="#e0e5e4"
     id="path37" />
  <path
     d="M 26.424362,42.5052 C 13.441462,43.0249 0.0103,43.4325 0.0103,43.4325 v 2.3741 c 0,0 14.337862,-0.6216 26.414062,-1.238 v -2.0685 z"
     fill="#e0e5e4"
     id="path38" />
  <path
     d="M 26.429562,38.7249 C 13.544462,39.3567 0.005143,39.861 0.005143,39.861 v 2.42 c 0,0 14.528519,-0.7693 26.424419,-1.508 z"
     fill="#e0e5e4"
     id="path39" />
  <path
     d="m 26.429562,34.9243 c -12.7872,0.754 -26.424419,1.3705 -26.424419,1.3705 v 2.4607 c 0,0 14.724319,-0.9374 26.424419,-1.8035 z"
     fill="#e0e5e4"
     id="path40" />
  <path
     d="m 26.429562,31.1033 c -12.6996,0.8865 -26.424419,1.6303 -26.424419,1.6303 v 2.5066 c 0,0 14.920019,-1.1311 26.424419,-2.1296 v -2.0022 z"
     fill="#e0e5e4"
     id="path41" />
  <path
     d="M 26.429562,27.2465 C 13.807262,28.2807 0,29.1621 0,29.1621 v 2.5474 c 0,0 15.120962,-1.3552 26.429562,-2.4964 z"
     fill="#e0e5e4"
     id="path42" />
  <path
     d="m 145.75986,33.6795 c 0,-0.2509 0.117,-0.3892 0.389,-0.3892 h 7.158 c 0.235,0 0.369,0.1383 0.369,0.3687 v 1.2084 c 0,0.2355 -0.098,0.3482 -0.39,0.3482 h -5.309 v 3.3486 h 4.705 c 0.251,0 0.389,0.1178 0.389,0.3482 v 1.2083 c 0,0.2356 -0.097,0.3482 -0.389,0.3482 h -4.705 v 3.83 h 5.448 c 0.235,0 0.348,0.1177 0.348,0.3686 v 1.1879 c 0,0.2509 -0.097,0.3482 -0.369,0.3482 h -7.255 c -0.272,0 -0.389,-0.1178 -0.389,-0.3482 v -12.181 z"
     fill="#e0e5e4"
     id="path43" />
  <path
     d="m 163.57786,46.2034 h -1.382 c -0.292,0 -0.369,-0.1382 -0.369,-0.3686 v -0.6042 l -0.041,-0.0205 c -0.758,0.5274 -2.084,1.1674 -3.267,1.1674 -2.626,0 -2.877,-1.5565 -2.877,-3.5995 v -5.7193 c 0,-0.2355 0.097,-0.3891 0.368,-0.3891 h 1.419 c 0.251,0 0.348,0.1382 0.348,0.3891 v 5.4684 c 0,1.1674 0.235,1.9047 1.418,1.9047 0.835,0 2.12,-0.6246 2.627,-0.8755 v -6.4976 c 0,-0.2355 0.077,-0.3891 0.369,-0.3891 h 1.382 c 0.271,0 0.369,0.1382 0.369,0.3891 v 8.7761 c 0,0.2509 -0.098,0.3686 -0.369,0.3686 z"
     fill="#e0e5e4"
     id="path44" />
  <path
     d="m 168.52386,45.834 c 0,0.2355 -0.097,0.3686 -0.368,0.3686 h -1.403 c -0.272,0 -0.369,-0.1177 -0.369,-0.3686 v -8.7761 c 0,-0.2509 0.097,-0.3892 0.369,-0.3892 h 1.382 c 0.292,0 0.389,0.1536 0.389,0.3892 v 0.855 l 0.041,0.041 c 0.584,-0.5427 1.966,-1.2084 2.878,-1.3825 0.251,-0.0563 0.43,0 0.466,0.3329 l 0.138,1.3056 c 0.02,0.2714 0.041,0.3892 -0.369,0.466 -1.09,0.215 -2.473,0.6042 -3.154,0.896 z"
     fill="#e0e5e4"
     id="path45" />
  <path
     d="m 177.08486,46.3618 c -3.912,0 -4.163,-2.8571 -4.163,-5.0793 0,-1.8279 0.41,-4.8028 4.163,-4.8028 3.753,0 4.301,2.509 4.301,4.8028 0,2.2939 -0.271,5.0793 -4.301,5.0793 z m 0.016,-8.0132 c -1.654,0 -2.023,1.0497 -2.023,3.0722 0,2.0225 0.369,3.0721 2.002,3.0721 1.772,0 2.12,-0.9933 2.12,-3.0721 0,-2.0789 -0.333,-3.0722 -2.099,-3.0722 z"
     fill="#e0e5e4"
     id="path46" />
  <path
     d="m 187.82186,46.3823 c -0.64,0 -1.536,-0.1177 -2.432,-0.4301 l -0.02,0.0205 v 3.4255 c 0,0.215 -0.057,0.3891 -0.369,0.3891 h -1.382 c -0.313,0 -0.369,-0.1382 -0.369,-0.3891 V 37.0635 c 0,-0.2509 0.097,-0.3891 0.369,-0.3891 h 1.382 c 0.271,0 0.348,0.1536 0.348,0.3891 v 0.5837 l 0.056,0.041 c 0.702,-0.4865 1.946,-1.1674 3.073,-1.1674 2.549,0 3.21,1.9252 3.21,4.8642 0,3.1694 -0.799,4.9973 -3.871,4.9973 z m 0.159,-7.921 c -0.799,0 -2.023,0.5632 -2.606,0.8756 v 4.8642 c 0.875,0.2509 1.577,0.3328 2.237,0.3328 1.403,0 1.89,-0.7219 1.89,-3.1694 0,-2.4475 -0.487,-2.8981 -1.516,-2.8981 z"
     fill="#e0e5e4"
     id="path47" />
  <path
     d="m 195.43086,42.0252 c 0.056,1.9662 0.758,2.5089 2.355,2.5089 0.702,0 1.792,-0.1382 2.53,-0.215 0.348,-0.041 0.466,-0.041 0.527,0.3328 l 0.118,0.64 c 0.056,0.2919 0.02,0.4455 -0.333,0.6042 -0.758,0.2919 -2.176,0.4864 -3.134,0.4864 -3.717,0 -4.26,-2.3706 -4.26,-4.9 0,-1.8894 0.348,-4.9974 4.143,-4.9974 3.481,0 4.106,2.258 4.162,4.3573 0.021,0.7015 -0.174,1.1879 -0.952,1.1879 h -5.156 z m 0.02,-1.4593 h 3.851 c 0,-1.1879 -0.313,-2.3348 -1.925,-2.3348 -1.439,0 -1.828,0.8756 -1.926,2.3348 z"
     fill="#e0e5e4"
     id="path48" />
  <path
     d="m 209.32186,45.0975 c -0.973,0.7373 -2.278,1.2647 -3.579,1.2647 -2.063,0 -2.667,-1.1264 -2.667,-2.7598 -0.021,-2.2785 1.208,-3.2513 3.655,-3.2513 h 2.489 v -0.507 c 0,-1.1674 -0.43,-1.577 -2.023,-1.577 -0.64,0 -1.868,0.0973 -2.647,0.1741 -0.389,0.0563 -0.486,0.041 -0.543,-0.2355 l -0.174,-0.722 c -0.041,-0.2509 0.021,-0.4096 0.446,-0.5837 0.834,-0.2918 2.376,-0.4301 3.287,-0.4301 3.364,0 3.774,1.3825 3.774,3.5586 v 3.7531 c 0,0.7988 0.097,0.8192 0.701,0.8961 0.292,0.0204 0.369,0.0768 0.369,0.2918 v 0.8192 c 0,0.2151 -0.138,0.3482 -0.466,0.4097 -0.312,0.0563 -0.625,0.0972 -0.917,0.0972 -0.916,0 -1.479,-0.2713 -1.674,-1.1878 l -0.041,-0.0205 z m -0.117,-3.2309 h -2.376 c -0.973,0 -1.598,0.3482 -1.598,1.6334 0,0.8551 0.292,1.1265 1.209,1.1265 0.834,0 2.022,-0.4865 2.765,-0.9166 v -1.8484 z"
     fill="#e0e5e4"
     id="path49" />
  <path
     d="m 221.67686,46.2029 h -1.403 c -0.25,0 -0.368,-0.1178 -0.368,-0.3687 l 0.02,-5.4684 c 0,-1.1469 -0.271,-1.9047 -1.403,-1.9047 -0.778,0 -2.14,0.6247 -2.667,0.8756 v 6.4975 c 0,0.2356 -0.098,0.3687 -0.369,0.3687 h -1.382 c -0.272,0 -0.369,-0.1178 -0.369,-0.3687 v -8.776 c 0,-0.2509 0.097,-0.3892 0.369,-0.3892 h 1.382 c 0.271,0 0.369,0.1383 0.369,0.3892 v 0.5837 c 0,0 0.041,0.0204 0.056,0.0204 0.722,-0.5069 2.084,-1.1674 3.267,-1.1674 2.626,0 2.857,1.7307 2.857,3.6968 v 5.6425 c 0,0.2356 -0.077,0.3687 -0.369,0.3687 z"
     fill="#e0e5e4"
     id="path50" />
  <path
     d="m 150.97686,53.6329 c 0.953,0 2.53,0.1382 3.559,0.5632 0.312,0.1382 0.43,0.2919 0.368,0.6042 l -0.174,0.7988 c -0.061,0.2355 -0.153,0.3328 -0.507,0.2918 -0.952,-0.1178 -2.119,-0.2509 -3.133,-0.2509 -2.647,0 -3.037,2.1403 -3.037,4.6697 0,2.5294 0.487,4.5519 3.037,4.5519 1.126,0 2.084,-0.1178 3.133,-0.2509 0.369,-0.041 0.446,0.0563 0.528,0.3123 l 0.153,0.7373 c 0.077,0.3124 -0.02,0.4864 -0.332,0.6247 -0.953,0.4096 -2.648,0.5837 -3.6,0.5837 -4.337,0 -5.253,-3.2104 -5.253,-6.5181 0,-3.3076 0.819,-6.7126 5.253,-6.7126 z"
     fill="#e0e5e4"
     id="path51" />
  <path
     d="m 160.47486,66.8429 c -3.912,0 -4.162,-2.857 -4.162,-5.0792 0,-1.828 0.409,-4.8028 4.162,-4.8028 3.753,0 4.301,2.5089 4.301,4.8028 0,2.2938 -0.271,5.0792 -4.301,5.0792 z m 0.021,-8.0131 c -1.654,0 -2.023,1.0496 -2.023,3.0721 0,2.0225 0.369,3.0722 2.002,3.0722 1.772,0 2.12,-0.9934 2.12,-3.0722 0,-2.0788 -0.333,-3.0721 -2.099,-3.0721 z"
     fill="#e0e5e4"
     id="path52" />
  <path
     d="m 180.25986,66.6849 h -1.403 c -0.271,0 -0.369,-0.1178 -0.369,-0.3687 v -5.5247 c 0,-1.4388 -0.348,-1.8484 -1.321,-1.8484 -0.722,0 -1.889,0.5632 -2.488,0.8756 0,0.1945 0.02,0.5427 0.02,0.9933 v 5.5042 c 0,0.2356 -0.077,0.3687 -0.368,0.3687 h -1.419 c -0.251,0 -0.333,-0.1178 -0.333,-0.3687 v -5.622 c 0,-1.1879 -0.312,-1.7511 -1.285,-1.7511 -0.681,0 -1.771,0.4864 -2.509,0.8756 v 6.4975 c 0,0.2356 -0.097,0.3687 -0.368,0.3687 h -1.398 c -0.251,0 -0.348,-0.1178 -0.348,-0.3687 v -8.776 c 0,-0.2509 0.097,-0.3892 0.348,-0.3892 h 1.382 c 0.292,0 0.389,0.1536 0.389,0.3892 v 0.5632 l 0.021,0.0205 c 0.758,-0.5274 1.828,-1.1111 2.898,-1.147 1.126,0 2.063,0.2356 2.668,1.362 0.973,-0.7219 2.181,-1.362 3.425,-1.362 2.565,0 2.821,1.6744 2.821,3.62 v 5.7193 c 0,0.2356 -0.076,0.3687 -0.348,0.3687 z"
     fill="#e0e5e4"
     id="path53" />
  <path
     d="m 196.29086,66.6849 h -1.403 c -0.271,0 -0.368,-0.1178 -0.368,-0.3687 v -5.5247 c 0,-1.4388 -0.349,-1.8484 -1.321,-1.8484 -0.722,0 -1.885,0.5632 -2.489,0.8756 0,0.1945 0.021,0.5427 0.021,0.9933 v 5.5042 c 0,0.2356 -0.077,0.3687 -0.369,0.3687 h -1.418 c -0.251,0 -0.333,-0.1178 -0.333,-0.3687 v -5.622 c 0,-1.1879 -0.312,-1.7511 -1.285,-1.7511 -0.681,0 -1.772,0.4864 -2.509,0.8756 v 6.4975 c 0,0.2356 -0.098,0.3687 -0.369,0.3687 h -1.403 c -0.251,0 -0.348,-0.1178 -0.348,-0.3687 v -8.776 c 0,-0.2509 0.097,-0.3892 0.348,-0.3892 h 1.383 c 0.291,0 0.389,0.1536 0.389,0.3892 v 0.5632 l 0.02,0.0205 c 0.758,-0.5274 1.828,-1.1111 2.898,-1.147 1.127,0 2.064,0.2356 2.668,1.362 0.973,-0.7219 2.176,-1.362 3.425,-1.362 2.571,0 2.822,1.6744 2.822,3.62 v 5.7193 c 0,0.2356 -0.077,0.3687 -0.349,0.3687 z"
     fill="#e0e5e4"
     id="path54" />
  <path
     d="m 200.10586,55.7527 c -1.014,0 -1.147,-0.5632 -1.147,-1.1265 0,-0.6246 0.215,-1.1111 1.147,-1.1111 0.932,0 1.147,0.4455 1.147,1.1111 0,0.6042 -0.174,1.1265 -1.147,1.1265 z m 1.034,10.563 c 0,0.2151 -0.077,0.3687 -0.348,0.3687 h -1.383 c -0.271,0 -0.389,-0.1178 -0.389,-0.3687 v -8.7914 c 0,-0.2714 0.118,-0.3687 0.389,-0.3687 h 1.383 c 0.271,0 0.348,0.1536 0.348,0.3687 z"
     fill="#e0e5e4"
     id="path55" />
  <path
     d="m 206.74186,66.8429 c -0.973,0 -2.279,-0.1382 -3.016,-0.4301 -0.389,-0.1536 -0.466,-0.3328 -0.41,-0.64 l 0.139,-0.64 c 0.056,-0.3124 0.194,-0.3328 0.506,-0.2919 0.856,0.1383 2.1,0.2356 2.765,0.2356 1.245,0 1.752,-0.3329 1.752,-1.1111 0,-0.8961 -0.333,-1.0906 -1.557,-1.2647 -1.905,-0.2714 -3.579,-0.681 -3.579,-2.8008 0,-1.9252 1.48,-2.939 3.656,-2.939 0.799,0 2.14,0.1177 2.959,0.4301 0.333,0.1382 0.466,0.2918 0.41,0.5837 l -0.154,0.7015 c -0.056,0.2713 -0.174,0.3123 -0.527,0.2713 -0.835,-0.0973 -1.925,-0.215 -2.647,-0.215 -1.244,0 -1.536,0.3482 -1.536,1.0906 0,0.7424 0.466,0.8551 1.654,1.0496 1.848,0.2714 3.522,0.6401 3.522,2.9595 0,2.3195 -1.925,3.0159 -3.927,3.0159 z"
     fill="#e0e5e4"
     id="path56" />
  <path
     d="m 215.67586,66.8429 c -0.972,0 -2.278,-0.1382 -3.015,-0.4301 -0.39,-0.1536 -0.466,-0.3328 -0.41,-0.64 l 0.138,-0.64 c 0.057,-0.3124 0.195,-0.3328 0.507,-0.2919 0.855,0.1383 2.099,0.2356 2.765,0.2356 1.244,0 1.751,-0.3329 1.751,-1.1111 0,-0.8961 -0.333,-1.0906 -1.556,-1.2647 -1.905,-0.2714 -3.579,-0.681 -3.579,-2.8008 0,-1.9252 1.479,-2.939 3.655,-2.939 0.799,0 2.141,0.1177 2.96,0.4301 0.333,0.1382 0.466,0.2918 0.41,0.5837 l -0.154,0.7015 c -0.056,0.2713 -0.174,0.3123 -0.527,0.2713 -0.835,-0.0973 -1.926,-0.215 -2.648,-0.215 -1.244,0 -1.536,0.3482 -1.536,1.0906 0,0.7424 0.466,0.8551 1.654,1.0496 1.849,0.2714 3.523,0.6401 3.523,2.9595 0,2.3195 -1.925,3.0159 -3.927,3.0159 z"
     fill="#e0e5e4"
     id="path57" />
  <path
     d="m 222.77786,55.7527 c -1.013,0 -1.147,-0.5632 -1.147,-1.1265 0,-0.6246 0.215,-1.1111 1.147,-1.1111 0.932,0 1.147,0.4455 1.147,1.1111 0,0.6042 -0.174,1.1265 -1.147,1.1265 z m 1.03,10.563 c 0,0.2151 -0.077,0.3687 -0.349,0.3687 h -1.382 c -0.271,0 -0.389,-0.1178 -0.389,-0.3687 v -8.7914 c 0,-0.2714 0.118,-0.3687 0.389,-0.3687 h 1.382 c 0.272,0 0.349,0.1536 0.349,0.3687 z"
     fill="#e0e5e4"
     id="path58" />
  <path
     d="m 230.18686,66.8429 c -3.912,0 -4.162,-2.857 -4.162,-5.0792 0,-1.828 0.409,-4.8028 4.162,-4.8028 3.753,0 4.301,2.5089 4.301,4.8028 0,2.2938 -0.271,5.0792 -4.301,5.0792 z m 0.021,-8.0131 c -1.654,0 -2.023,1.0496 -2.023,3.0721 0,2.0225 0.369,3.0722 2.002,3.0722 1.772,0 2.12,-0.9934 2.12,-3.0722 0,-2.0788 -0.333,-3.0721 -2.099,-3.0721 z"
     fill="#e0e5e4"
     id="path59" />
  <path
     d="m 244.25686,66.6849 h -1.402 c -0.251,0 -0.369,-0.1178 -0.369,-0.3687 l 0.02,-5.4684 c 0,-1.1469 -0.271,-1.9047 -1.403,-1.9047 -0.778,0 -2.14,0.6247 -2.667,0.8756 v 6.4975 c 0,0.2356 -0.098,0.3687 -0.369,0.3687 h -1.382 c -0.272,0 -0.369,-0.1178 -0.369,-0.3687 v -8.776 c 0,-0.2509 0.097,-0.3892 0.369,-0.3892 h 1.382 c 0.271,0 0.369,0.1383 0.369,0.3892 v 0.5837 c 0,0 0.041,0.0204 0.056,0.0204 0.722,-0.5069 2.084,-1.1674 3.267,-1.1674 2.626,0 2.857,1.7307 2.857,3.6968 v 5.6425 c 0,0.2356 -0.077,0.3687 -0.369,0.3687 z"
     fill="#e0e5e4"
     id="path60" />
  <path
     d="M 256.84286,66.6843 V 27.5862 h -3.333 v 39.0981 z"
     fill="#e0e5e4"
     id="path61" />
</svg>
